# xmcd
#
# Track frame offsets: 
#        150
#        23189
#        43275
#        64360
#        81187
#        96658
#        108735
#        122396
#        132878
#        144830
#        158051
#        177808
#        199687
#
# Disc length: 2917 seconds
#
# Revision: 0
# Processed by: cddbd v1.5.2PL0 Copyright (c) Steve Scherf et al.
# Submitted via: ExactAudioCopy v1.0b4
#
DISCID=b50b630d
DTITLE=McDowell Brothers - Tribute To Inspiration
DYEAR=2016
DGENRE=Blues
TTITLE0=Runaway Blues (Feat. Brother Jacob)
TTITLE1=Left Me In The Cold (Feat. Brother Jacob and Jamiah Rodgers)
TTITLE2=Party All Night (To The Blues)
TTITLE3=Jam
TTITLE4=Brothers
TTITLE5=I'm A Love You (Feat. Seeds Of Reed)
TTITLE6=Close Together (Feat. Seeds Of Reed)
TTITLE7=Delta Interlude (Feat. Fernando Jones)
TTITLE8=I Wanna Know (Feat. Kara)
TTITLE9=Soul Groove
TTITLE10=Pathway To Glory
TTITLE11=With You I'm Born Again
TTITLE12=Mother (Feat. Kerry Junior)
EXTD=
EXTT0=
EXTT1=
EXTT2=
EXTT3=
EXTT4=
EXTT5=
EXTT6=
EXTT7=
EXTT8=
EXTT9=
EXTT10=
EXTT11=
EXTT12=
PLAYORDER=
